<svg xmlns="http://www.w3.org/2000/svg" version="1.1" xmlns:xlink="http://www.w3.org/1999/xlink" xmlns:svgjs="http://svgjs.dev/svgjs" width="2000" height="1252" viewBox="0 0 2000 1252"><g transform="matrix(1,0,0,1,-1.2121212121212466,-2.01935483870966)"><svg viewBox="0 0 396 248" data-background-color="#ffffff" preserveAspectRatio="xMidYMid meet" height="1252" width="2000" xmlns="http://www.w3.org/2000/svg" xmlns:xlink="http://www.w3.org/1999/xlink"><g id="tight-bounds" transform="matrix(1,0,0,1,0.2400000000000091,0.4000000000000057)"><svg viewBox="0 0 395.52 247.2" height="247.2" width="395.52"><g><svg></svg></g><g><svg viewBox="0 0 395.52 247.2" height="247.2" width="395.52"><g transform="matrix(1,0,0,1,75.54432,97.52835739014424)"><svg viewBox="0 0 244.43135999999998 52.1432852197115" height="52.1432852197115" width="244.43135999999998"><g><svg viewBox="0 0 244.43135999999998 52.1432852197115" height="52.1432852197115" width="244.43135999999998"><g><svg viewBox="0 0 244.43135999999998 52.1432852197115" height="52.1432852197115" width="244.43135999999998"><g><svg viewBox="0 0 244.43135999999998 52.1432852197115" height="52.1432852197115" width="244.43135999999998"><g id="textblocktransform"><svg viewBox="0 0 244.43135999999998 52.1432852197115" height="52.1432852197115" width="244.43135999999998" id="textblock"><g><svg viewBox="0 0 244.43135999999998 28.12359645435867" height="28.12359645435867" width="244.43135999999998"><g transform="matrix(1,0,0,1,0,0)"><svg width="244.43135999999998" viewBox="0.75 -35.6 340.68 39.2" height="28.12359645435867" data-palette-color="#6c48c5"><path d="M16.85-19.45L16.85-15.6 17.25-15.6 19.75-12.6 19.75-8.95Q17.8-8.95 17.23-8.25 16.65-7.55 16.65-6L16.65-6 16.65-5.25Q17-5.25 17.25-5.65L17.25-5.65 18.65-4.75 21.15-1.75Q20.85 0.6 19.45 1.8 18.05 3 16.07 3 14.1 3 12.2 1.65L12.2 1.65Q10.3 3 8.28 3 6.25 3 3.65 0.6 1.05-1.8 0.75-4.75L0.75-4.75 2.15-5.65Q2.35-5.2 3.1-5.2L3.1-5.2Q5.25-5.2 5.25-8.95L5.25-8.95 4.65-8.95 2.15-11.95 2.15-15.6Q4.2-15.6 5.05-15.45L5.05-15.45 5.05-24.95 4.65-24.95 2.15-27.95 2.15-35 14.1-35 22.15-25.25 30.3-35 41.2-35 43.7-32 43.7-24.95 40.7-24.95 40.7-15.6 41.1-15.6 43.6-12.6 43.6-8.95Q41.65-8.95 41.08-8.25 40.5-7.55 40.5-6L40.5-6 40.5-5.25Q40.85-5.25 41.1-5.65L41.1-5.65 42.5-4.75 45-1.75Q44.7 0.6 43.3 1.8 41.9 3 39.93 3 37.95 3 36.05 1.65L36.05 1.65Q34.15 3 32.13 3 30.1 3 27.5 0.6 24.9-1.8 24.6-4.75L24.6-4.75 26-5.65Q26.2-5.2 26.95-5.2L26.95-5.2Q29.1-5.2 29.1-8.95L29.1-8.95 28.5-8.95 26-11.95 26-12.8 24.7-11.2 23.55-11.2 21.05-14.15 16.85-19.45ZM31.7-13.95L31.7-13.95Q32.2-14.25 32.9-15.15L32.9-15.15 34.2-15.15Q34.85-14.25 35.4-13.95L35.4-13.95Q35.9-14.65 36.7-15.05L36.7-15.05 36.7-29.35 39.8-29.35 39.8-33.6 31-33.6 22.2-23.25 21.05-23.25 12.3-33.6 3.55-33.6 3.55-29.35 6.55-29.35 6.55-15.05Q7.25-14.7 7.85-13.95L7.85-13.95Q8.35-14.25 9.05-15.15L9.05-15.15 10.35-15.15Q11-14.25 11.55-13.95L11.55-13.95Q12.1-14.7 13-15.1L13-15.1 13-24.6 14.35-24.6 21.6-15.55 28.9-24.6 30.25-24.6 30.25-15.1Q31.05-14.75 31.7-13.95ZM9.55-3.05L9.85-3.05Q11.65-1.5 13.83-1.5 16-1.5 17-4L17-4Q16.65-3.8 16.2-3.8L16.2-3.8Q12.7-3.8 12.7-8.95L12.7-8.95Q12.7-13.15 16-13.15L16-13.15 16-14.4Q15.05-14.4 14.55-14.33 14.05-14.25 13.3-13.7 12.55-13.15 11.95-12.05L11.95-12.05Q10.75-12.3 9.7-13.8L9.7-13.8Q8.65-12.45 7.45-12.05L7.45-12.05Q6.8-13.15 6.05-13.7 5.3-14.25 4.8-14.33 4.3-14.4 3.4-14.4L3.4-14.4 3.4-13.15Q6.7-13.15 6.7-8.95L6.7-8.95Q6.7-5.15 5.1-4.2L5.1-4.2Q4.35-3.8 3.2-3.8L3.2-3.8 2.4-4Q3.4-1.5 5.58-1.5 7.75-1.5 9.55-3.05L9.55-3.05ZM33.4-3.05L33.7-3.05Q35.5-1.5 37.68-1.5 39.85-1.5 40.85-4L40.85-4Q40.5-3.8 40.05-3.8L40.05-3.8Q36.55-3.8 36.55-8.95L36.55-8.95Q36.55-13.15 39.85-13.15L39.85-13.15 39.85-14.4Q38.9-14.4 38.4-14.33 37.9-14.25 37.15-13.7 36.4-13.15 35.8-12.05L35.8-12.05Q34.6-12.3 33.55-13.8L33.55-13.8Q32.5-12.45 31.3-12.05L31.3-12.05Q29.95-14.35 27.7-14.35L27.7-14.35 27.25-14.35 27.25-13.15Q30.55-13.15 30.55-8.95L30.55-8.95Q30.55-5.15 28.95-4.2L28.95-4.2Q28.2-3.8 27.05-3.8L27.05-3.8 26.25-4Q27.25-1.5 29.43-1.5 31.6-1.5 33.4-3.05L33.4-3.05ZM66.25-7.4L66.25-8.95 65.65-8.95Q63.7-8.95 63.17-8.25 62.65-7.55 62.65-6L62.65-6 62.65-5.25Q62.95-5.4 63.15-5.65L63.15-5.65 67.05-1.75Q66.75 0.6 65.35 1.8 63.95 3 62.05 3 60.15 3 58.15 1.65L58.15 1.65Q56.15 3 54.25 3L54.25 3Q51.55 3 49.3 0.48 47.05-2.05 46.7-4.75L46.7-4.75 48.1-5.65Q48.35-5.2 49.2-5.2 50.05-5.2 50.52-5.88 51-6.55 51.07-7.2 51.15-7.85 51.15-8.95L51.15-8.95 50.6-8.95 48.1-11.95 48.1-15.6Q50.15-15.6 51-15.45L51-15.45 51-24.95 50.6-24.95 48.1-27.95 48.1-35 62.3-35 64.8-32 64.8-25.9 66.05-27.35 65.25-27.95 65.25-35 78.25-35 80.75-32 80.75-24.95 78.15-24.95 70.65-16.2 71.8-14.95Q74.55-14.3 76.05-11.73 77.55-9.15 77.55-5.95L77.55-5.95 77.55-5.25Q77.9-5.4 78.1-5.65L78.1-5.65 79.45-4.75 81.95-1.75Q81.7 0.75 80.1 1.88 78.5 3 75.1 3 71.7 3 68.97 0.08 66.25-2.85 66.25-7.4L66.25-7.4ZM53.8-13.95L53.8-13.95Q54.3-14.25 55-15.15L55-15.15 56.3-15.15Q56.95-14.25 57.55-13.95L57.55-13.95Q58.65-15.4 60.7-15.55L60.7-15.55Q61.45-15.6 63.17-15.6 64.9-15.6 65.7-15.55L65.7-15.55Q67.85-15.4 68.95-13.95L68.95-13.95Q69.4-14.15 70-14.9L70-14.9 66.1-18.95 74.95-29.35 76.85-29.35 76.85-33.6 66.6-33.6 66.6-29.35 69.55-29.35 60.65-19.05 58.8-19.05 58.8-29.35 60.9-29.35 60.9-33.6 49.5-33.6 49.5-29.35 52.5-29.35 52.5-15.05Q53.25-14.65 53.8-13.95ZM64.5-14.4L61.9-14.4Q61-14.4 60.52-14.33 60.05-14.25 59.3-13.7 58.55-13.15 57.95-12.05L57.95-12.05Q56.7-12.3 55.65-13.8L55.65-13.8Q54.6-12.45 53.35-12.05L53.35-12.05Q52.75-13.15 52-13.7 51.25-14.25 50.77-14.33 50.3-14.4 49.45-14.4L49.45-14.4 49.45-13.15Q52.65-13.15 52.65-8.95L52.65-8.95Q52.65-7.4 52.47-6.43 52.3-5.45 51.5-4.63 50.7-3.8 49.2-3.8L49.2-3.8 48.45-4Q49.45-1.5 51.6-1.5 53.75-1.5 55.5-3.05L55.5-3.05 55.8-3.05Q57.55-1.5 59.67-1.5 61.8-1.5 62.9-4L62.9-4Q62.65-3.8 61.8-3.8 60.95-3.8 60.22-4.23 59.5-4.65 59.2-5.45L59.2-5.45Q58.7-6.8 58.7-8.95L58.7-8.95Q58.7-13.15 61.9-13.15L61.9-13.15 64.5-13.15Q67.75-13.15 67.75-8.95L67.75-8.95 67.75-7.65Q67.75-1.5 72.95-1.5L72.95-1.5Q75.6-1.5 76.65-2.4L76.65-2.4Q77.65-3.2 77.8-4L77.8-4Q77.5-3.8 77.05-3.8L77.05-3.8Q75-3.8 74.35-5.2 73.7-6.6 73.7-9.15L73.7-9.15Q73.7-12.85 70.75-13.8L70.75-13.8Q69.8-12.45 68.55-12.05L68.55-12.05Q67.9-13.15 67.15-13.7 66.4-14.25 65.9-14.33 65.4-14.4 64.5-14.4L64.5-14.4ZM135.04-23.55L135.04-23.55 135.04-15.6 135.59-15.6 138.09-12.6 138.09-8.95Q136.19-8.95 135.59-8.25 134.99-7.55 134.99-6.1L134.99-6.1 134.99-5.3Q135.34-5.35 135.59-5.65L135.59-5.65 136.94-4.75 139.44-1.75Q139.09 0.6 137.69 1.8 136.29 3 134.09 3 131.89 3 130.04 1.05L130.04 1.05Q128.84 1.95 128.17 2.35 127.49 2.75 125.74 3.18 123.99 3.6 120.64 3.6 117.29 3.6 113.82 2.48 110.34 1.35 107.94-1.45 105.54-4.25 105.54-8.4L105.54-8.4 105.54-8.95 104.94-8.95 102.44-11.95 102.44-15.6Q104.69-15.6 105.59-15.45L105.59-15.45 105.59-26.55Q105.59-29.15 106.82-31 108.04-32.85 110.14-33.8L110.14-33.8Q114.04-35.6 119.04-35.6L119.04-35.6Q124.99-35.6 129.64-33.1L129.64-33.1Q132.09-31.75 133.57-29.3 135.04-26.85 135.04-23.55ZM126.29-13.95L126.29-13.95Q126.79-14.35 127.44-15.15L127.44-15.15 128.74-15.15Q129.09-14.5 129.89-13.95L129.89-13.95Q130.39-14.6 131.14-15L131.14-15 131.14-26.5Q131.14-29.2 129.24-31 127.34-32.8 124.77-33.45 122.19-34.1 119.07-34.1 115.94-34.1 113.37-33.45 110.79-32.8 108.89-31 106.99-29.2 106.99-26.5L106.99-26.5 106.99-14.95Q107.69-14.5 108.14-13.95L108.14-13.95Q108.64-14.2 109.29-15.15L109.29-15.15 110.64-15.15Q111.29-14.25 111.79-13.95L111.79-13.95Q112.74-15.1 113.99-15.4L113.99-15.4 113.99-24.55Q113.99-27.2 115.34-28.6 116.69-30 119.09-30 121.49-30 122.87-28.63 124.24-27.25 124.24-24.55L124.24-24.55 124.24-15.3Q125.39-15 126.29-13.95ZM121.79-14.3L121.79-14.3 121.79-12Q123.49-11.85 124.19-10.98 124.89-10.1 124.89-9.25L124.89-9.25Q124.89-6.55 123.39-5.53 121.89-4.5 119.14-4.5 116.39-4.5 114.82-6 113.24-7.5 113.24-10.25L113.24-10.25Q113.24-11.2 113.94-12.15 114.64-13.1 116.29-13.1L116.29-13.1 116.29-14.3Q115.34-14.3 114.87-14.23 114.39-14.15 113.67-13.63 112.94-13.1 112.29-12.05L112.29-12.05Q111.04-12.3 109.94-13.75L109.94-13.75Q108.99-12.45 107.74-12.05L107.74-12.05Q107.09-13.1 106.34-13.63 105.59-14.15 105.12-14.23 104.64-14.3 103.74-14.3L103.74-14.3 103.74-13.1Q106.94-13.1 106.94-8.45L106.94-8.45Q106.94-5.75 108.84-4L108.84-4Q112.19-0.85 119.04-0.85L119.04-0.85Q121.44-0.85 123.17-1.33 124.89-1.8 125.57-2.25 126.24-2.7 127.34-3.65L127.34-3.65 127.74-3.65Q128.84-2.45 129.72-1.9 130.59-1.35 131.74-1.35L131.74-1.35Q134.19-1.35 135.39-3.95L135.39-3.95Q135.09-3.85 134.54-3.85L134.54-3.85Q133.04-3.85 132.27-4.65 131.49-5.45 131.32-6.4 131.14-7.35 131.14-8.95L131.14-8.95Q131.14-13.1 134.34-13.1L134.34-13.1 134.34-14.3Q133.44-14.3 132.94-14.23 132.44-14.15 131.69-13.63 130.94-13.1 130.29-12.05L130.29-12.05Q129.24-12.4 128.09-13.75L128.09-13.75Q127.19-12.45 125.84-12.05L125.84-12.05Q125.19-13.1 124.44-13.63 123.69-14.15 123.19-14.23 122.69-14.3 121.79-14.3ZM117.89-21.45L117.89-21.45 117.89-14.8 120.09-12.6 120.09-8.95Q119.24-8.9 118.72-8.83 118.19-8.75 117.64-8.3 117.09-7.85 117.09-7L117.09-7 117.19-6.15Q117.99-5.85 119.04-5.85L119.04-5.85Q122.59-5.85 123.29-7.85L123.29-7.85 122.99-7.85 120.49-11.35 120.49-15.6Q122.14-15.6 122.84-15.55L122.84-15.55 122.84-24.45 122.79-25.3Q122.44-25.45 121.54-25.45L121.54-25.45Q117.89-25.45 117.89-21.45ZM178.39-32L178.39-24.95 175.39-24.95 175.39-15.6 175.74-15.6 178.24-12.6 178.24-8.95Q176.34-8.95 175.79-8.25 175.24-7.55 175.24-6.05L175.24-6.05 175.24-5.4Q175.24-2.8 173.97-0.95 172.69 0.9 170.54 1.85L170.54 1.85Q166.49 3.6 161.34 3.6L161.34 3.6Q154.14 3.6 149.54 0.18 144.94-3.25 144.94-8.4L144.94-8.4 144.94-8.95 144.44-8.95 141.94-11.95 141.94-15.6Q143.99-15.6 144.84-15.45L144.84-15.45 144.84-24.95 144.44-24.95 141.94-27.95 141.94-35 157.14-35 159.64-32 159.64-24.95 156.64-24.95 156.64-15.6 157.09-15.6 159.59-12.6 159.59-8.95Q158.74-8.9 158.24-8.83 157.74-8.75 157.17-8.3 156.59-7.85 156.59-7L156.59-7Q156.59-5.95 158.59-5.95 160.59-5.95 161.82-6.78 163.04-7.6 163.44-8.95L163.44-8.95 163.09-8.95 160.59-11.95 160.59-15.6Q162.74-15.6 163.59-15.45L163.59-15.45 163.59-24.95 163.19-24.95 160.69-27.95 160.69-35 175.89-35 178.39-32ZM153.04-1.55Q155.69-0.9 158.84-0.9 161.99-0.9 164.64-1.55 167.29-2.2 169.27-3.98 171.24-5.75 171.24-8.45L171.24-8.45 171.24-8.95Q171.24-13.1 174.49-13.1L174.49-13.1 174.49-14.3Q173.59-14.3 173.12-14.23 172.64-14.15 171.87-13.63 171.09-13.1 170.44-12.05L170.44-12.05Q169.34-12.3 168.24-13.75L168.24-13.75Q167.34-12.45 165.94-12.05L165.94-12.05Q165.34-13.1 164.59-13.63 163.84-14.15 163.34-14.23 162.84-14.3 161.94-14.3L161.94-14.3 161.94-13.1Q163.59-13.1 164.29-12.15 164.99-11.2 164.99-10.25L164.99-10.25Q164.99-7.55 163.24-6.03 161.49-4.5 158.84-4.5 156.19-4.5 154.44-6.03 152.69-7.55 152.69-10.25L152.69-10.25Q152.69-11.2 153.39-12.15 154.09-13.1 155.74-13.1L155.74-13.1 155.74-14.3Q154.84-14.3 154.34-14.23 153.84-14.15 153.09-13.63 152.34-13.1 151.74-12.05L151.74-12.05Q150.44-12.3 149.44-13.75L149.44-13.75Q148.44-12.45 147.24-12.05L147.24-12.05Q146.59-13.1 145.82-13.63 145.04-14.15 144.57-14.23 144.09-14.3 143.19-14.3L143.19-14.3 143.19-13.1Q146.44-13.1 146.44-8.95L146.44-8.95 146.44-8.45Q146.44-5.75 148.42-3.98 150.39-2.2 153.04-1.55ZM166.39-13.95L166.39-13.95Q166.89-14.25 167.59-15.15L167.59-15.15 168.84-15.15Q169.49-14.25 170.09-13.95L170.09-13.95Q170.64-14.6 171.39-15L171.39-15 171.39-29.35 174.49-29.35 174.49-33.6 162.09-33.6 162.09-29.35 165.09-29.35 165.09-15Q165.79-14.6 166.39-13.95ZM147.59-13.95L147.59-13.95Q148.19-14.3 148.84-15.15L148.84-15.15 150.09-15.15Q150.74-14.25 151.29-13.95L151.29-13.95Q151.84-14.65 152.64-15.05L152.64-15.05 152.64-29.35 155.74-29.35 155.74-33.6 143.34-33.6 143.34-29.35 146.34-29.35 146.34-15Q146.99-14.65 147.59-13.95ZM186.19-28.05L186.19-35 210.69-35 213.19-32 213.19-25.05 210.59-25.05 212.44-15.55Q212.89-15.6 213.84-15.6L213.84-15.6 216.34-12.6 216.94-9Q214.24-9 214.24-6.6L214.24-6.6Q214.24-5.15 214.59-5.15L214.59-5.15Q215.44-5.15 215.54-5.65L215.54-5.65 217.14-4.7 219.64-1.7Q219.64 0.7 218.46 1.85 217.29 3 215.46 3 213.64 3 211.29 1.75L211.29 1.75Q209.44 3 207.69 3L207.69 3Q204.94 3 202.51 0.55 200.09-1.9 199.24-4.7L199.24-4.7 200.44-5.65Q200.84-5.15 201.59-5.15L201.59-5.15Q203.24-5.15 203.24-7.1L203.24-7.1 203.09-8.25Q202.14-8.75 200.76-8.75 199.39-8.75 198.14-7.95 196.89-7.15 196.44-5.65L196.44-5.65 197.64-4.7 200.14-1.7Q199.44 0.65 197.81 1.83 196.19 3 194.36 3 192.54 3 190.54 1.75L190.54 1.75Q188.29 3 186.39 3L186.39 3Q183.79 3 181.81 0.5 179.84-2 179.84-4.7L179.84-4.7 181.39-5.65Q181.49-5.15 182.36-5.15 183.24-5.15 184.06-6.35 184.89-7.55 185.09-9L185.09-9 182.44-12 183.04-15.6Q185.19-15.6 186.29-15.3L186.29-15.3 188.29-25.5 186.19-28.05ZM204.74-13.9L204.74-13.9Q205.19-14.25 205.74-15.15L205.74-15.15 207.04-15.15Q207.84-14.2 208.49-13.9L208.49-13.9Q208.69-14.25 209.29-14.75L209.29-14.75 206.44-29.5 209.29-29.5 209.29-33.6 187.59-33.6 187.59-29.5 190.44-29.5 187.54-14.75Q188.14-14.3 188.44-13.9L188.44-13.9Q189.04-14.25 189.84-15.15L189.84-15.15 191.14-15.15Q191.54-14.2 191.99-13.9L191.99-13.9Q193.89-15.8 198.41-15.8 202.94-15.8 204.74-13.9ZM208.34-3.05L208.64-3.05Q210.84-1.35 212.86-1.35 214.89-1.35 215.54-3.95L215.54-3.95Q215.29-3.75 214.84-3.75L214.84-3.75Q212.94-3.75 211.61-5.63 210.29-7.5 210.29-9.2L210.29-9.2Q210.29-12.75 213.04-13.15L213.04-13.15 212.84-14.35Q211.89-14.35 211.41-14.28 210.94-14.2 210.29-13.68 209.64-13.15 209.19-12.05L209.19-12.05Q208.04-12.25 206.59-13.75L206.59-13.75Q206.24-13.1 205.76-12.68 205.29-12.25 204.69-12.05L204.69-12.05Q202.74-14.45 198.39-14.45 194.04-14.45 192.19-12.05L192.19-12.05Q191.04-12.25 190.24-13.75L190.24-13.75Q189.04-12.45 187.74-12.05L187.74-12.05Q187.29-13.15 186.61-13.68 185.94-14.2 185.44-14.28 184.94-14.35 184.04-14.35L184.04-14.35 183.84-13.15Q185.24-12.95 185.91-11.98 186.59-11 186.59-9.25 186.59-7.5 185.26-5.63 183.94-3.75 182.09-3.75L182.09-3.75 181.39-3.95Q182.04-1.35 184.01-1.35 185.99-1.35 188.24-3.05L188.24-3.05 188.54-3.05Q190.24-1.35 191.94-1.35L191.94-1.35Q194.19-1.35 195.84-3.95L195.84-3.95Q195.44-3.75 194.94-3.75L194.94-3.75Q192.14-3.75 192.14-6.65 192.14-9.55 194.04-11.23 195.94-12.9 198.44-12.9 200.94-12.9 202.84-11.23 204.74-9.55 204.74-6.65 204.74-3.75 201.94-3.75L201.94-3.75 200.99-3.95Q202.59-1.35 204.94-1.35L204.94-1.35Q206.69-1.35 208.34-3.05L208.34-3.05ZM203.09-17L193.89-17 196.59-29.5 200.29-29.5 203.09-17ZM201.39-18.3L200.04-24.25 198.74-18.3 201.39-18.3ZM240.04-32L240.04-24.95 237.04-24.95 237.04-15.6 237.39-15.6 239.89-12.6 239.89-8.95Q239.09-8.9 238.59-8.83 238.09-8.75 237.54-8.3 236.99-7.85 236.99-7L236.99-7 236.99-6.8Q237.69-6.55 238.99-6.55 240.29-6.55 241.44-7.35 242.59-8.15 242.59-9.6L242.59-9.6Q242.59-9.85 242.29-11.05L242.29-11.05 242.29-12.65 248.09-12.65 250.59-9.65 250.59-0.65Q250.59 1.1 251.49 1.65L251.49 1.65 250.59 3Q249.29 3 247.86 2.35 246.44 1.7 245.64 0.95L245.64 0.95Q244.79 1.7 242.76 2.35 240.74 3 238.94 3L238.94 3Q235.29 3 232.99 1.05L232.99 1.05Q230.94 3 228.31 3 225.69 3 223.46 0.48 221.24-2.05 220.89-4.75L220.89-4.75 222.29-5.65Q222.54-5.25 223.29-5.25L223.29-5.25Q225.29-5.25 225.29-8.95L225.29-8.95 224.79-8.95 222.29-11.95 222.29-15.6Q224.39-15.6 225.24-15.45L225.24-15.45 225.24-24.95 224.84-24.95 222.34-27.95 222.34-35 237.54-35 240.04-32ZM243.94-9.4L243.94-9.4Q243.94-7.4 242.41-6.25 240.89-5.1 238.69-5.1 236.49-5.1 234.76-6.38 233.04-7.65 233.04-10.25L233.04-10.25Q233.04-11.15 233.76-12.13 234.49-13.1 236.09-13.1L236.09-13.1 236.09-14.3Q235.19-14.3 234.71-14.23 234.24-14.15 233.49-13.63 232.74-13.1 232.14-12.05L232.14-12.05Q230.94-12.3 229.84-13.75L229.84-13.75Q228.94-12.45 227.59-12.05L227.59-12.05Q226.94-13.1 226.19-13.63 225.44-14.15 224.96-14.23 224.49-14.3 223.59-14.3L223.59-14.3 223.59-13.1Q225.29-13.1 226.06-11.93 226.84-10.75 226.84-8.65 226.84-6.55 226.16-5.2 225.49-3.85 223.34-3.85L223.34-3.85 222.64-3.95Q223.54-1.4 225.79-1.4 228.04-1.4 230.19-3.65L230.19-3.65 230.64-3.65 230.84-3.45Q233.24-1.45 236.66-1.45 240.09-1.45 243.14-3.8L243.14-3.8Q243.59-3.35 244.99-2.53 246.39-1.7 247.19-1.55L247.19-1.55Q246.74-2.05 246.74-4.15L246.74-4.15 246.74-11.15 243.69-11.15Q243.94-10.3 243.94-9.4ZM227.99-13.95L227.99-13.95Q228.49-14.25 229.19-15.15L229.19-15.15 230.54-15.15Q231.19-14.25 231.69-13.95L231.69-13.95Q232.24-14.65 233.04-15.05L233.04-15.05 233.04-29.35 236.14-29.35 236.14-33.6 223.74-33.6 223.74-29.35 226.74-29.35 226.74-15Q227.39-14.65 227.99-13.95ZM272.03-32L272.03-24.95 269.03-24.95 269.03-15.6 269.43-15.6 271.93-12.6 271.93-8.95Q269.98-8.95 269.41-8.25 268.83-7.55 268.83-6L268.83-6 268.83-5.25Q269.18-5.25 269.43-5.65L269.43-5.65 270.83-4.75 273.33-1.75Q273.03 0.6 271.63 1.8 270.23 3 268.26 3 266.28 3 264.38 1.65L264.38 1.65Q262.48 3 260.46 3 258.43 3 255.83 0.6 253.23-1.8 252.93-4.75L252.93-4.75 254.33-5.65Q254.53-5.2 255.28-5.2L255.28-5.2Q257.43-5.2 257.43-8.95L257.43-8.95 256.83-8.95 254.33-11.95 254.33-15.6Q256.38-15.6 257.23-15.45L257.23-15.45 257.23-24.95 256.83-24.95 254.33-27.95 254.33-35 269.53-35 272.03-32ZM260.03-13.95L260.03-13.95Q260.53-14.25 261.23-15.15L261.23-15.15 262.53-15.15Q263.18-14.25 263.73-13.95L263.73-13.95Q264.23-14.65 265.03-15.05L265.03-15.05 265.03-29.35 268.13-29.35 268.13-33.6 255.73-33.6 255.73-29.35 258.73-29.35 258.73-15.05Q259.43-14.7 260.03-13.95ZM261.73-3.05L262.03-3.05Q263.83-1.5 266.01-1.5 268.18-1.5 269.18-4L269.18-4Q268.83-3.8 268.38-3.8L268.38-3.8Q264.88-3.8 264.88-8.95L264.88-8.95Q264.88-13.15 268.18-13.15L268.18-13.15 268.18-14.4Q267.23-14.4 266.73-14.33 266.23-14.25 265.48-13.7 264.73-13.15 264.13-12.05L264.13-12.05Q262.93-12.3 261.88-13.8L261.88-13.8Q260.83-12.45 259.63-12.05L259.63-12.05Q258.98-13.15 258.23-13.7 257.48-14.25 256.98-14.33 256.48-14.4 255.58-14.4L255.58-14.4 255.58-13.15Q258.88-13.15 258.88-8.95L258.88-8.95Q258.88-5.15 257.28-4.2L257.28-4.2Q256.53-3.8 255.38-3.8L255.38-3.8 254.58-4Q255.58-1.5 257.76-1.5 259.93-1.5 261.73-3.05L261.73-3.05ZM298.48-24.95L296.73-24.95 296.73-15.6 297.13-15.6 299.63-12.6 299.63-8.95Q297.68-8.95 297.11-8.25 296.53-7.55 296.53-6L296.53-6 296.53-5.25Q296.88-5.25 297.13-5.65L297.13-5.65 298.53-4.75 301.03-1.75Q300.73 0.6 299.33 1.8 297.93 3 295.95 3 293.98 3 292.08 1.65L292.08 1.65Q290.18 3 288.16 3 286.13 3 283.53 0.6 280.93-1.8 280.63-4.75L280.63-4.75 282.03-5.65Q282.23-5.2 282.98-5.2L282.98-5.2Q285.13-5.2 285.13-8.95L285.13-8.95 284.53-8.95 282.03-11.95 282.03-15.6Q284.08-15.6 284.93-15.45L284.93-15.45 284.93-24.95 283.48-24.95 283.48-19.8 277.68-19.8 275.18-22.8 275.18-35 303.98-35 306.48-32 306.48-19.8 300.98-19.8 298.48-22.8 298.48-24.95ZM287.73-13.95L287.73-13.95Q288.23-14.25 288.93-15.15L288.93-15.15 290.23-15.15Q290.88-14.25 291.43-13.95L291.43-13.95Q291.93-14.65 292.73-15.05L292.73-15.05 292.73-29.35 299.73-29.35 299.73-24.2 302.58-24.2 302.58-33.6 276.58-33.6 276.58-24.2 279.58-24.2 279.58-29.35 286.43-29.35 286.43-15.05Q287.13-14.7 287.73-13.95ZM289.43-3.05L289.73-3.05Q291.53-1.5 293.7-1.5 295.88-1.5 296.88-4L296.88-4Q296.53-3.8 296.08-3.8L296.08-3.8Q292.58-3.8 292.58-8.95L292.58-8.95Q292.58-13.15 295.88-13.15L295.88-13.15 295.88-14.4Q294.93-14.4 294.43-14.33 293.93-14.25 293.18-13.7 292.43-13.15 291.83-12.05L291.83-12.05Q290.63-12.3 289.58-13.8L289.58-13.8Q288.53-12.45 287.33-12.05L287.33-12.05Q286.68-13.15 285.93-13.7 285.18-14.25 284.68-14.33 284.18-14.4 283.28-14.4L283.28-14.4 283.28-13.15Q286.58-13.15 286.58-8.95L286.58-8.95Q286.58-5.15 284.98-4.2L284.98-4.2Q284.23-3.8 283.08-3.8L283.08-3.8 282.28-4Q283.28-1.5 285.45-1.5 287.63-1.5 289.43-3.05L289.43-3.05ZM315.43-11.95L315.43-15.6 316.88-15.6 311.93-24.95 309.48-24.95 306.98-27.95 306.98-35 321.78-35 324.18-32.1 324.18-35 338.93-35 341.43-32 341.43-24.95 338.03-24.95 332.08-13.75 333.03-12.6 333.03-8.95Q331.08-8.95 330.5-8.25 329.93-7.55 329.93-6L329.93-6 329.93-5.25Q330.28-5.25 330.53-5.65L330.53-5.65 331.93-4.75 334.43-1.75Q334.13 0.6 332.73 1.8 331.33 3 329.35 3 327.38 3 325.48 1.65L325.48 1.65Q323.58 3 321.55 3 319.53 3 316.93 0.6 314.33-1.8 314.03-4.75L314.03-4.75 315.43-5.65Q315.63-5.2 316.38-5.2L316.38-5.2Q318.53-5.2 318.53-8.95L318.53-8.95 317.93-8.95 315.43-11.95ZM321.13-13.95L321.13-13.95Q321.63-14.25 322.33-15.15L322.33-15.15 323.63-15.15Q324.28-14.25 324.83-13.95L324.83-13.95Q325.68-15.15 327.33-15.45L327.33-15.45 334.53-29.35 337.53-29.35 337.53-33.6 325.58-33.6 325.58-29.35 328.63-29.35 323.88-19.05 322.08-19.05 317.28-29.35 320.38-29.35 320.38-33.6 308.38-33.6 308.38-29.35 311.38-29.35 318.53-15.45Q320.23-15.15 321.13-13.95ZM322.83-3.05L323.13-3.05Q324.93-1.5 327.1-1.5 329.28-1.5 330.28-4L330.28-4Q329.93-3.8 329.48-3.8L329.48-3.8Q325.98-3.8 325.98-8.95L325.98-8.95Q325.98-13.15 329.28-13.15L329.28-13.15 329.28-14.4Q328.33-14.4 327.83-14.33 327.33-14.25 326.58-13.7 325.83-13.15 325.23-12.05L325.23-12.05Q324.03-12.3 322.98-13.8L322.98-13.8Q321.93-12.45 320.73-12.05L320.73-12.05Q320.08-13.15 319.33-13.7 318.58-14.25 318.08-14.33 317.58-14.4 316.68-14.4L316.68-14.4 316.68-13.15Q319.98-13.15 319.98-8.95L319.98-8.95Q319.98-5.15 318.38-4.2L318.38-4.2Q317.63-3.8 316.48-3.8L316.48-3.8 315.68-4Q316.68-1.5 318.85-1.5 321.03-1.5 322.83-3.05L322.83-3.05ZM324.28-27.8L324.28-24.95 322.13-24.95 323.58-21.55 325.58-26.25 324.28-27.8Z" opacity="1" transform="matrix(1,0,0,1,0,0)" fill="#6c48c5" class="wordmark-text-0" data-fill-palette-color="primary" id="text-0"></path></svg></g></svg></g><g transform="matrix(1,0,0,1,0,34.76290261091785)"><svg viewBox="0 0 244.43135999999998 17.380382608793656" height="17.380382608793656" width="244.43135999999998"><g transform="matrix(1,0,0,1,0,0)"><svg width="244.43135999999998" viewBox="0.16 -32.16 628.01 44.68" height="17.380382608793656" data-palette-color="#6c48c5"><path d="M1.96 1.64L1.96 1.64Q1.96 4.6 5.08 5.2L5.08 5.2Q5.68 5.32 6.44 5.32L6.44 5.32Q11.44 5.32 14.36 2.1 17.28-1.12 17.28-6L17.28-6Q17.28-7.92 16.58-9.54 15.88-11.16 14.84-12.22 13.8-13.28 12.58-14.36 11.36-15.44 10.32-16.32 9.28-17.2 8.58-18.44 7.88-19.68 7.88-21.08L7.88-21.08Q7.88-24.76 11.18-27.86 14.48-30.96 18.28-30.96L18.28-30.96Q19.04-30.96 19.4-30.4 19.76-29.84 19.76-29.28L19.76-29.28 19.72-28.76Q19.44-28.92 18.32-28.92L18.32-28.92Q15.76-28.92 13.36-26.52 10.96-24.12 10.96-20.96L10.96-20.96Q10.96-19.68 11.66-18.46 12.36-17.24 13.4-16.32 14.44-15.4 15.64-14.26 16.84-13.12 17.88-12.02 18.92-10.92 19.62-9.34 20.32-7.76 20.32-6L20.32-6Q20.32-1.16 16.32 2.6 12.32 6.36 6.44 6.36L6.44 6.36Q1.48 6.36 0.16 3.16L0.16 3.16Q-0.88 0.52 0.96-2.68 2.8-5.88 6.28-7L6.28-7Q7.56-7.4 8.56-7.4 9.56-7.4 9.94-7.06 10.32-6.72 10.44-6L10.44-6Q6.68-6 4-2.96L4-2.96Q1.96-0.68 1.96 1.64ZM20.52-20.48L20.52-20.48Q20.52-20.28 20.14-20.28 19.76-20.28 19.44-20.44 19.12-20.6 19.12-20.88L19.12-20.88Q19.12-24.96 20.04-27.44 20.96-29.92 22.48-29.92L22.48-29.92Q22.88-29.92 23.16-29.64 23.44-29.36 23.44-28.92L23.44-28.92Q21.64-27.12 20.84-23.52L20.84-23.52Q20.52-22.08 20.52-20.48ZM54.24-19.4L54.24-19.4Q57.28-19.4 57.28-15.84L57.28-15.84Q57.28-13.8 55.92-11.56L55.92-11.56Q53.6-7.84 49.76-7.84L49.76-7.84Q49.16-7.84 48.76-8.04 48.36-8.24 48.16-8.64L48.16-8.64Q51-8.64 53.36-11.92L53.36-11.92Q55.28-14.56 55.28-16.76L55.28-16.76Q55.28-18.4 53.96-18.4L53.96-18.4Q51.32-18.4 49.04-14.28L49.04-14.28Q46.6-9.8 46.6-5.08L46.6-5.08Q46.6-1.08 48.88-0.28L48.88-0.28Q49.32-0.12 50-0.12 50.68-0.12 51.44-0.46 52.2-0.8 52.72-1.28L52.72-1.28Q53.76-2.24 54.44-3.4L54.44-3.4Q54.6-3.72 55.04-3.72L55.04-3.72Q55.76-3.72 55.72-3.48L55.72-3.48Q55.6-3.04 54.82-2 54.04-0.96 53.38-0.34 52.72 0.28 51.66 0.78 50.6 1.28 49.52 1.28L49.52 1.28Q45.28 1.28 44.12-2.72L44.12-2.72Q43.76-4.08 43.76-5.52L43.76-5.52Q43.76-8.2 45-11.36L45-11.36Q46.96-16.16 50.4-18.28L50.4-18.28Q52.28-19.4 54.24-19.4ZM81.4-17.32L81.4-17.32Q79.84-17.32 79.84-18.6L79.84-18.6Q79.84-19.08 80.24-19.2L80.24-19.2Q80.28-19.24 80.36-19.24L80.36-19.24Q80.6-18.96 81.26-18.96 81.92-18.96 83.36-19.04L83.36-19.04Q85.24-24.12 86.96-24.12L86.96-24.12Q87.64-24.12 87.64-23.36L87.64-23.36Q87-21.76 86.2-19.24L86.2-19.24Q90.16-19.68 91.36-19.68L91.36-19.68Q91.68-19.68 91.68-19.36L91.68-19.36Q91.68-18.72 90.84-18.72L90.84-18.72Q90.4-18.72 85.76-17.88L85.76-17.88Q82.6-7.88 82.6-1.68 82.6 4.52 85.08 4.52L85.08 4.52Q86.08 4.52 86.96 3.66 87.84 2.8 88.2 1.96L88.2 1.96Q88.36 1.52 88.88 1.72L88.88 1.72Q89.12 1.8 89.04 1.96L89.04 1.96Q88.8 2.48 88.44 3.16 88.08 3.84 87.04 4.84 86 5.84 84.92 5.84L84.92 5.84Q80.16 5.84 80.16-2.44L80.16-2.44Q80.16-9.44 82.76-17.4L82.76-17.4Q82.2-17.32 81.4-17.32ZM112.64-17.32L112.64-17.32Q111.08-17.32 111.08-18.6L111.08-18.6Q111.08-19.08 111.48-19.2L111.48-19.2Q111.52-19.24 111.6-19.24L111.6-19.24Q111.84-18.96 112.5-18.96 113.16-18.96 114.6-19.04L114.6-19.04Q116.48-24.12 118.2-24.12L118.2-24.12Q118.88-24.12 118.88-23.36L118.88-23.36Q118.24-21.76 117.44-19.24L117.44-19.24Q121.4-19.68 122.6-19.68L122.6-19.68Q122.92-19.68 122.92-19.36L122.92-19.36Q122.92-18.72 122.08-18.72L122.08-18.72Q121.64-18.72 117-17.88L117-17.88Q113.84-7.88 113.84-1.68 113.84 4.52 116.32 4.52L116.32 4.52Q117.32 4.52 118.2 3.66 119.08 2.8 119.44 1.96L119.44 1.96Q119.6 1.52 120.12 1.72L120.12 1.72Q120.36 1.8 120.28 1.96L120.28 1.96Q120.04 2.48 119.68 3.16 119.32 3.84 118.28 4.84 117.24 5.84 116.16 5.84L116.16 5.84Q111.4 5.84 111.4-2.44L111.4-2.44Q111.4-9.44 114-17.4L114-17.4Q113.44-17.32 112.64-17.32ZM147.4 5.84L147.4 5.84Q145.08 5.84 143.98 3.4 142.88 0.96 142.88-3.92 142.88-8.8 144.32-15.48 145.76-22.16 147.7-26.56 149.64-30.96 151.08-30.96L151.08-30.96Q151.76-30.96 151.76-30.16L151.76-30.16Q150.92-28.24 149.64-24.38 148.36-20.52 147.5-17.24 146.64-13.96 145.94-9.56 145.24-5.16 145.24-2.02 145.24 1.12 145.86 2.82 146.48 4.52 147.56 4.52L147.56 4.52Q148.48 4.52 149.32 3.66 150.16 2.8 150.52 1.96L150.52 1.96Q150.72 1.52 151.24 1.72L151.24 1.72Q151.44 1.8 151.34 2.06 151.24 2.32 151.02 2.72 150.8 3.12 150.24 3.96L150.24 3.96Q149.04 5.84 147.4 5.84ZM182.16-19.4L182.16-19.4Q185.2-19.4 185.2-15.84L185.2-15.84Q185.2-13.8 183.84-11.56L183.84-11.56Q181.52-7.84 177.68-7.84L177.68-7.84Q177.08-7.84 176.68-8.04 176.28-8.24 176.08-8.64L176.08-8.64Q178.92-8.64 181.28-11.92L181.28-11.92Q183.2-14.56 183.2-16.76L183.2-16.76Q183.2-18.4 181.88-18.4L181.88-18.4Q179.24-18.4 176.96-14.28L176.96-14.28Q174.52-9.8 174.52-5.08L174.52-5.08Q174.52-1.08 176.8-0.28L176.8-0.28Q177.24-0.12 177.92-0.12 178.6-0.12 179.36-0.46 180.12-0.8 180.64-1.28L180.64-1.28Q181.68-2.24 182.36-3.4L182.36-3.4Q182.52-3.72 182.96-3.72L182.96-3.72Q183.68-3.72 183.64-3.48L183.64-3.48Q183.52-3.04 182.74-2 181.96-0.96 181.3-0.34 180.64 0.28 179.58 0.78 178.52 1.28 177.44 1.28L177.44 1.28Q173.2 1.28 172.04-2.72L172.04-2.72Q171.68-4.08 171.68-5.52L171.68-5.52Q171.68-8.2 172.92-11.36L172.92-11.36Q174.88-16.16 178.32-18.28L178.32-18.28Q180.2-19.4 182.16-19.4ZM235.64 12.52L235.64 12.52Q233.6 12.52 233.6 10.08L233.6 10.08Q233.6 8.36 234.68 5.36 235.76 2.36 236.84 0.16L236.84 0.16Q238.8-3.68 239.64-5.12L239.64-5.12Q240.56-13.72 241.28-17.44L241.28-17.44Q240.32-17.32 239.36-17.32 238.4-17.32 238.2-18.32L238.2-18.32Q238.2-19.12 238.68-19.24L238.68-19.24Q238.84-19 239.84-19 240.84-19 241.64-19.08L241.64-19.08Q244.24-31.04 250.52-31.04L250.52-31.04Q251.32-31.04 251.28-30.44L251.28-30.44Q251.24-30.04 251-30.04L251-30.04Q248.28-30.04 246.64-27.2 245-24.36 244-19.24L244-19.24Q248.76-19.6 249.8-19.6L249.8-19.6Q250.16-19.6 250.1-19.12 250.04-18.64 249.28-18.64 248.52-18.64 243.72-17.84L243.72-17.84Q243.2-14.88 242.62-9.24 242.04-3.6 241.68-0.64 241.32 2.32 240.84 4.56 240.36 6.8 239.68 8.68L239.68 8.68Q238.28 12.52 235.64 12.52ZM235.68 11.36L235.68 11.36Q236.92 11.36 237.56 9.28L237.56 9.28Q238.28 7 238.6 4.52L238.6 4.52Q239.08 0.8 239.44-3.12L239.44-3.12Q236.44 3.24 235.8 5.28L235.8 5.28Q234.72 8.72 234.72 10.04 234.72 11.36 235.68 11.36ZM251.72-24.6L251.72-24.6Q251.24-24.6 251.2-25.4L251.2-25.4Q251.2-27.92 252.06-30.04 252.92-32.16 254.2-32.16L254.2-32.16Q254.68-32.16 254.68-31.56L254.68-31.56Q254.4-31.12 254.16-30.76 253.92-30.4 253.66-29.92 253.4-29.44 253.12-28.84 252.84-28.24 252.6-27.64L252.6-27.64Q252.08-26.32 252.08-25.08L252.08-25.08Q252.08-24.6 251.72-24.6ZM274.28 0.36L274.28 0.36Q269.36 0.36 269.36-6.4L269.36-6.4Q269.36-10.2 271.28-14L271.28-14Q273.72-18.8 277.08-18.8L277.08-18.8Q277.56-18.8 277.88-18.56 278.2-18.32 278.32-17.84L278.32-17.84Q275.8-17.84 273.96-13.8 272.12-9.76 272.12-5.84L272.12-5.84Q272.12-1.08 274.72-1.08L274.72-1.08Q276.2-1.08 277.8-3.34 279.4-5.6 280.46-9.28 281.52-12.96 281.52-16.68L281.52-16.68 281.52-17.16Q280.28-17.96 279.48-19.16 278.68-20.36 278.68-20.92 278.68-21.48 279.18-21.98 279.68-22.48 280.2-22.48L280.2-22.48Q280.96-22.48 281.68-21.12 282.4-19.76 282.68-18.04L282.68-18.04Q283.92-17.2 284.86-17.2 285.8-17.2 286.36-17.52L286.36-17.52Q286.36-16.96 285.96-16.52 285.56-16.08 284.72-16.08 283.88-16.08 282.8-16.48L282.8-16.48Q282.76-12.64 281.64-8.76 280.52-4.88 278.52-2.26 276.52 0.36 274.28 0.36ZM318.32-11.48L318.32-11.48Q316.8-11.48 316.8-14.8L316.8-14.8Q316.8-16.68 317.52-18.32L317.52-18.32Q314.8-15.96 311.44-9.54 308.08-3.12 308.08-1.16L308.08-1.16Q308.08-0.68 307.44-0.68L307.44-0.68Q306.28-0.68 306.28-3.84L306.28-3.84Q306.28-9.8 307.48-14.64 308.68-19.48 310.4-19.48L310.4-19.48Q311.16-19.48 311.16-18.6L311.16-18.6Q309.32-12.76 308.52-6.64L308.52-6.64 308.8-6.64Q312.04-14.12 315.96-18.32L315.96-18.32Q318.2-20.72 320.04-20.72L320.04-20.72Q320.44-20.72 320.7-20.48 320.96-20.24 320.96-19.88L320.96-19.88Q320.68-19.6 320.28-19.04 319.88-18.48 319.2-16.38 318.52-14.28 318.52-11.8L318.52-11.8Q318.52-11.48 318.32-11.48ZM373.33-17.32L373.33-17.32Q371.77-17.32 371.77-18.6L371.77-18.6Q371.77-19.08 372.17-19.2L372.17-19.2Q372.21-19.24 372.29-19.24L372.29-19.24Q372.53-18.96 373.19-18.96 373.85-18.96 375.29-19.04L375.29-19.04Q377.17-24.12 378.89-24.12L378.89-24.12Q379.57-24.12 379.57-23.36L379.57-23.36Q378.93-21.76 378.13-19.24L378.13-19.24Q382.09-19.68 383.29-19.68L383.29-19.68Q383.61-19.68 383.61-19.36L383.61-19.36Q383.61-18.72 382.77-18.72L382.77-18.72Q382.33-18.72 377.69-17.88L377.69-17.88Q374.53-7.88 374.53-1.68 374.53 4.52 377.01 4.52L377.01 4.52Q378.01 4.52 378.89 3.66 379.77 2.8 380.13 1.96L380.13 1.96Q380.29 1.52 380.81 1.72L380.81 1.72Q381.05 1.8 380.97 1.96L380.97 1.96Q380.73 2.48 380.37 3.16 380.01 3.84 378.97 4.84 377.93 5.84 376.85 5.84L376.85 5.84Q372.09 5.84 372.09-2.44L372.09-2.44Q372.09-9.44 374.69-17.4L374.69-17.4Q374.13-17.32 373.33-17.32ZM409.53-11.6Q407.41-7.76 406.23-4.8 405.05-1.84 405.05-1.3 405.05-0.76 404.49-0.76L404.49-0.76Q403.29-0.76 403.29-3.96L403.29-3.96Q403.29-10.32 404.57-16.74 405.85-23.16 407.61-27.02 409.37-30.88 410.89-30.88L410.89-30.88Q411.53-30.88 411.53-30.24L411.53-30.24Q409.41-25.56 407.99-19.56 406.57-13.56 405.61-6.76L405.61-6.76 405.89-6.76Q410.97-19.24 415.85-19.24L415.85-19.24Q417.89-19.24 417.89-17.28L417.89-17.28Q417.61-16.36 417.17-14.86 416.73-13.36 416.01-9.48 415.29-5.6 415.29-2.68L415.29-2.68Q415.29 1.56 416.53 1.56L416.53 1.56Q416.97 1.56 417.41 1.18 417.85 0.8 418.01 0.8L418.01 0.8Q418.57 0.8 417.97 1.68L417.97 1.68Q417.81 1.96 417.27 2.44 416.73 2.92 416.21 2.92L416.21 2.92Q414.65 2.92 413.79 0.74 412.93-1.44 412.93-4.92L412.93-4.92Q412.93-10.8 414.69-17.04L414.69-17.04Q414.77-17.64 414.21-17.56L414.21-17.56Q413.93-17.52 413.65-17.24L413.65-17.24Q411.65-15.44 409.53-11.6ZM450.57-19.4L450.57-19.4Q453.61-19.4 453.61-15.84L453.61-15.84Q453.61-13.8 452.25-11.56L452.25-11.56Q449.93-7.84 446.09-7.84L446.09-7.84Q445.49-7.84 445.09-8.04 444.69-8.24 444.49-8.64L444.49-8.64Q447.33-8.64 449.69-11.92L449.69-11.92Q451.61-14.56 451.61-16.76L451.61-16.76Q451.61-18.4 450.29-18.4L450.29-18.4Q447.65-18.4 445.37-14.28L445.37-14.28Q442.93-9.8 442.93-5.08L442.93-5.08Q442.93-1.08 445.21-0.28L445.21-0.28Q445.65-0.12 446.33-0.12 447.01-0.12 447.77-0.46 448.53-0.8 449.05-1.28L449.05-1.28Q450.09-2.24 450.77-3.4L450.77-3.4Q450.93-3.72 451.37-3.72L451.37-3.72Q452.09-3.72 452.05-3.48L452.05-3.48Q451.93-3.04 451.15-2 450.37-0.96 449.71-0.34 449.05 0.28 447.99 0.78 446.93 1.28 445.85 1.28L445.85 1.28Q441.61 1.28 440.45-2.72L440.45-2.72Q440.09-4.08 440.09-5.52L440.09-5.52Q440.09-8.2 441.33-11.36L441.33-11.36Q443.29-16.16 446.73-18.28L446.73-18.28Q448.61-19.4 450.57-19.4ZM513.37-3.68L513.37-3.68Q513.37-1.28 514.65-1.28L514.65-1.28Q516.29-1.28 518.25-5.68L518.25-5.68Q520.53-10.72 520.53-15.12L520.53-15.12Q520.53-18.12 518.97-18.12 517.41-18.12 515.47-15.58 513.53-13.04 512.09-9.88 510.65-6.72 509.63-4.18 508.61-1.64 508.61-1.36L508.61-1.36Q508.61-0.76 508.01-0.76L508.01-0.76Q506.81-0.76 506.81-3.96L506.81-3.96Q506.81-10.32 508.09-16.74 509.37-23.16 511.13-27.02 512.89-30.88 514.41-30.88L514.41-30.88Q515.05-30.88 515.05-30.24L515.05-30.24Q512.93-25.56 511.39-19 509.85-12.44 509.09-6.56L509.09-6.56 509.37-6.56Q511.21-11.24 513.57-14.96L513.57-14.96Q514.89-17.04 516.39-18.26 517.89-19.48 519.29-19.48L519.29-19.48Q522.13-19.48 522.81-15.8L522.81-15.8Q523.05-14.72 523.05-13.52L523.05-13.52Q523.05-10.56 521.77-7.08L521.77-7.08Q519.97-2.12 517.05-0.56L517.05-0.56Q516.05 0 514.97 0L514.97 0Q512.25 0 512.25-3.6L512.25-3.6Q512.25-5.52 513.31-8.02 514.37-10.52 516.09-11.72L516.09-11.72Q516.45-11.92 516.69-11.56L516.69-11.56Q516.73-11.36 516.65-11.28L516.65-11.28Q515.13-10.08 514.25-7.76 513.37-5.44 513.37-3.68ZM555.89-19.4L555.89-19.4Q558.93-19.4 558.93-15.84L558.93-15.84Q558.93-13.8 557.57-11.56L557.57-11.56Q555.25-7.84 551.41-7.84L551.41-7.84Q550.81-7.84 550.41-8.04 550.01-8.24 549.81-8.64L549.81-8.64Q552.65-8.64 555.01-11.92L555.01-11.92Q556.93-14.56 556.93-16.76L556.93-16.76Q556.93-18.4 555.61-18.4L555.61-18.4Q552.97-18.4 550.69-14.28L550.69-14.28Q548.25-9.8 548.25-5.08L548.25-5.08Q548.25-1.08 550.53-0.28L550.53-0.28Q550.97-0.12 551.65-0.12 552.33-0.12 553.09-0.46 553.85-0.8 554.37-1.28L554.37-1.28Q555.41-2.24 556.09-3.4L556.09-3.4Q556.25-3.72 556.69-3.72L556.69-3.72Q557.41-3.72 557.37-3.48L557.37-3.48Q557.25-3.04 556.47-2 555.69-0.96 555.03-0.34 554.37 0.28 553.31 0.78 552.25 1.28 551.17 1.28L551.17 1.28Q546.93 1.28 545.77-2.72L545.77-2.72Q545.41-4.08 545.41-5.52L545.41-5.52Q545.41-8.2 546.65-11.36L546.65-11.36Q548.61-16.16 552.05-18.28L552.05-18.28Q553.93-19.4 555.89-19.4ZM583.53-1.36L583.53-1.36Q583.53 1.44 585.33 1.44L585.33 1.44Q587.01 1.44 588.47-1.32 589.93-4.08 589.93-8.28L589.93-8.28Q589.93-10.32 589.19-14.04 588.45-17.76 588.45-18.9 588.45-20.04 588.53-20.4L588.53-20.4Q588.01-19.56 585.53-14.82 583.05-10.08 581.13-7.32L581.13-7.32Q580.97-7.16 580.69-7.22 580.41-7.28 580.23-7.46 580.05-7.64 580.05-7.72 580.05-7.8 580.09-7.84L580.09-7.84Q581.97-10.56 584.47-15.34 586.97-20.12 588.65-22.48 590.33-24.84 591.97-24.84L591.97-24.84Q592.81-24.84 592.81-24.12L592.81-24.12Q592.81-23.64 592.13-22.84L592.13-22.84Q589.97-20.4 589.97-17.84L589.97-17.84Q589.97-16.32 591.13-11.98 592.29-7.64 592.29-5.68L592.29-5.68Q592.29-2.16 590.33 0.3 588.37 2.76 585.89 2.76L585.89 2.76Q582.37 2.76 582.37-1.28L582.37-1.28Q582.37-4.32 584.23-7.64 586.09-10.96 587.97-12.12L587.97-12.12Q588.33-12.36 588.43-11.84 588.53-11.32 588.29-11.16L588.29-11.16Q586.17-9.96 584.61-6.04L584.61-6.04Q583.53-3.28 583.53-1.36ZM617.89-17.32L617.89-17.32Q616.33-17.32 616.33-18.6L616.33-18.6Q616.33-19.08 616.73-19.2L616.73-19.2Q616.77-19.24 616.85-19.24L616.85-19.24Q617.09-18.96 617.75-18.96 618.41-18.96 619.85-19.04L619.85-19.04Q621.73-24.12 623.45-24.12L623.45-24.12Q624.13-24.12 624.13-23.36L624.13-23.36Q623.49-21.76 622.69-19.24L622.69-19.24Q626.65-19.68 627.85-19.68L627.85-19.68Q628.17-19.68 628.17-19.36L628.17-19.36Q628.17-18.72 627.33-18.72L627.33-18.72Q626.89-18.72 622.25-17.88L622.25-17.88Q619.09-7.88 619.09-1.68 619.09 4.52 621.57 4.52L621.57 4.52Q622.57 4.52 623.45 3.66 624.33 2.8 624.69 1.96L624.69 1.96Q624.85 1.52 625.37 1.72L625.37 1.72Q625.61 1.8 625.53 1.96L625.53 1.96Q625.29 2.48 624.93 3.16 624.57 3.84 623.53 4.84 622.49 5.84 621.41 5.84L621.41 5.84Q616.65 5.84 616.65-2.44L616.65-2.44Q616.65-9.44 619.25-17.4L619.25-17.4Q618.69-17.32 617.89-17.32Z" opacity="1" transform="matrix(1,0,0,1,0,0)" fill="#6c48c5" class="slogan-text-1" data-fill-palette-color="secondary" id="text-1"></path></svg></g></svg></g></svg></g></svg></g></svg></g></svg></g></svg></g><path d="M195.213 91.528L195.213 27.056 2.126 27.056 2.126 220.144 195.213 220.144 195.213 155.672 192.677 155.672 192.677 217.607 4.662 217.607 4.662 29.593 192.677 29.593 192.677 91.528Z" fill="#6c48c5" stroke="transparent" data-fill-palette-color="tertiary"></path></svg></g><defs></defs></svg><rect width="395.52" height="247.2" fill="none" stroke="none" visibility="hidden"></rect></g></svg></g></svg>